<mxfile host="www.draw.io" modified="2019-10-17T13:42:54.090Z" agent="Mozilla/5.0 (Windows NT 10.0; Win64; x64) AppleWebKit/537.36 (KHTML, like Gecko) Chrome/77.0.3865.120 Safari/537.36" etag="0CtIIeoqzk-nH8q1y4Lp" version="12.1.3" type="github" pages="1">
  <diagram id="qPX73vX5w-RGEXnde1Sj" name="Page-1">
    <mxGraphModel dx="2249" dy="762" grid="1" gridSize="10" guides="1" tooltips="1" connect="1" arrows="1" fold="1" page="1" pageScale="1" pageWidth="827" pageHeight="1169" math="0" shadow="0">
      <root>
        <mxCell id="0"/>
        <mxCell id="1" parent="0"/>
        <mxCell id="2yYWwWodukew2ZsMQavv-1" value="" style="rounded=1;whiteSpace=wrap;html=1;fillColor=#d5e8d4;strokeColor=#82b366;" parent="1" vertex="1">
          <mxGeometry x="130" y="170" width="380" height="230" as="geometry"/>
        </mxCell>
        <mxCell id="2yYWwWodukew2ZsMQavv-2" value="" style="endArrow=classic;html=1;strokeWidth=5;" parent="1" edge="1">
          <mxGeometry width="50" height="50" relative="1" as="geometry">
            <mxPoint x="90" y="375" as="sourcePoint"/>
            <mxPoint x="130" y="375" as="targetPoint"/>
          </mxGeometry>
        </mxCell>
        <mxCell id="2yYWwWodukew2ZsMQavv-11" value="" style="endArrow=classic;html=1;strokeWidth=5;" parent="1" target="2yYWwWodukew2ZsMQavv-1" edge="1">
          <mxGeometry width="50" height="50" relative="1" as="geometry">
            <mxPoint x="130" y="370" as="sourcePoint"/>
            <mxPoint x="520" y="370" as="targetPoint"/>
          </mxGeometry>
        </mxCell>
        <mxCell id="2yYWwWodukew2ZsMQavv-17" value="" style="edgeStyle=elbowEdgeStyle;elbow=horizontal;endArrow=classic;html=1;strokeWidth=5;" parent="1" edge="1">
          <mxGeometry width="50" height="50" relative="1" as="geometry">
            <mxPoint x="130" y="375" as="sourcePoint"/>
            <mxPoint x="413" y="285" as="targetPoint"/>
            <Array as="points">
              <mxPoint x="363" y="330"/>
            </Array>
          </mxGeometry>
        </mxCell>
        <mxCell id="2yYWwWodukew2ZsMQavv-21" value="" style="endArrow=classic;html=1;strokeWidth=5;" parent="1" edge="1">
          <mxGeometry width="50" height="50" relative="1" as="geometry">
            <mxPoint x="330" y="201" as="sourcePoint"/>
            <mxPoint x="540" y="201" as="targetPoint"/>
          </mxGeometry>
        </mxCell>
        <mxCell id="2yYWwWodukew2ZsMQavv-22" value="" style="edgeStyle=segmentEdgeStyle;endArrow=classic;html=1;strokeWidth=5;" parent="1" source="2yYWwWodukew2ZsMQavv-48" edge="1">
          <mxGeometry width="50" height="50" relative="1" as="geometry">
            <mxPoint x="250" y="370" as="sourcePoint"/>
            <mxPoint x="290" y="290" as="targetPoint"/>
            <Array as="points">
              <mxPoint x="250" y="290"/>
            </Array>
          </mxGeometry>
        </mxCell>
        <mxCell id="2yYWwWodukew2ZsMQavv-24" value="" style="edgeStyle=segmentEdgeStyle;endArrow=classic;html=1;strokeWidth=5;" parent="1" edge="1">
          <mxGeometry width="50" height="50" relative="1" as="geometry">
            <mxPoint x="433" y="312.5" as="sourcePoint"/>
            <mxPoint x="540" y="375.5" as="targetPoint"/>
            <Array as="points">
              <mxPoint x="433" y="375.5"/>
            </Array>
          </mxGeometry>
        </mxCell>
        <mxCell id="2yYWwWodukew2ZsMQavv-26" value="" style="edgeStyle=segmentEdgeStyle;endArrow=classic;html=1;strokeWidth=5;" parent="1" edge="1">
          <mxGeometry width="50" height="50" relative="1" as="geometry">
            <mxPoint x="443" y="375.5" as="sourcePoint"/>
            <mxPoint x="473" y="140" as="targetPoint"/>
            <Array as="points">
              <mxPoint x="473" y="375.5"/>
            </Array>
          </mxGeometry>
        </mxCell>
        <mxCell id="2yYWwWodukew2ZsMQavv-28" value="" style="endArrow=classic;html=1;strokeWidth=5;" parent="1" source="2yYWwWodukew2ZsMQavv-45" edge="1">
          <mxGeometry width="50" height="50" relative="1" as="geometry">
            <mxPoint x="199.5" y="370" as="sourcePoint"/>
            <mxPoint x="199.5" y="220" as="targetPoint"/>
          </mxGeometry>
        </mxCell>
        <mxCell id="2yYWwWodukew2ZsMQavv-29" value="&lt;font style=&quot;font-size: 34px&quot;&gt;×&lt;/font&gt;" style="ellipse;whiteSpace=wrap;html=1;aspect=fixed;fillColor=#f8cecc;strokeColor=#b85450;" parent="1" vertex="1">
          <mxGeometry x="180" y="180" width="40" height="40" as="geometry"/>
        </mxCell>
        <mxCell id="2yYWwWodukew2ZsMQavv-34" value="&lt;font style=&quot;font-size: 34px&quot;&gt;＋&lt;/font&gt;" style="ellipse;whiteSpace=wrap;html=1;aspect=fixed;fillColor=#f8cecc;strokeColor=#b85450;" parent="1" vertex="1">
          <mxGeometry x="290" y="180" width="40" height="40" as="geometry"/>
        </mxCell>
        <mxCell id="2yYWwWodukew2ZsMQavv-71" value="" style="edgeStyle=orthogonalEdgeStyle;rounded=0;orthogonalLoop=1;jettySize=auto;html=1;strokeColor=#000000;strokeWidth=5;" parent="1" source="2yYWwWodukew2ZsMQavv-37" edge="1">
          <mxGeometry relative="1" as="geometry">
            <mxPoint x="310" y="220" as="targetPoint"/>
          </mxGeometry>
        </mxCell>
        <mxCell id="2yYWwWodukew2ZsMQavv-37" value="&lt;font style=&quot;font-size: 34px&quot;&gt;×&lt;/font&gt;" style="ellipse;whiteSpace=wrap;html=1;aspect=fixed;fillColor=#f8cecc;strokeColor=#b85450;" parent="1" vertex="1">
          <mxGeometry x="290" y="265" width="40" height="40" as="geometry"/>
        </mxCell>
        <mxCell id="2yYWwWodukew2ZsMQavv-41" value="&lt;font style=&quot;font-size: 34px&quot;&gt;×&lt;/font&gt;" style="ellipse;whiteSpace=wrap;html=1;aspect=fixed;fillColor=#f8cecc;strokeColor=#b85450;" parent="1" vertex="1">
          <mxGeometry x="413" y="272" width="40" height="40" as="geometry"/>
        </mxCell>
        <mxCell id="2yYWwWodukew2ZsMQavv-43" value="&lt;font style=&quot;font-size: 19px&quot;&gt;tanh&lt;/font&gt;" style="ellipse;whiteSpace=wrap;html=1;fillColor=#f8cecc;strokeColor=#b85450;" parent="1" vertex="1">
          <mxGeometry x="408" y="213" width="50" height="30" as="geometry"/>
        </mxCell>
        <mxCell id="2yYWwWodukew2ZsMQavv-45" value="&lt;font style=&quot;font-size: 18px&quot;&gt;σ&lt;/font&gt;" style="rounded=1;whiteSpace=wrap;html=1;fillColor=#fff2cc;strokeColor=#d6b656;" parent="1" vertex="1">
          <mxGeometry x="180" y="333" width="37" height="20" as="geometry"/>
        </mxCell>
        <mxCell id="2yYWwWodukew2ZsMQavv-48" value="&lt;font style=&quot;font-size: 18px&quot;&gt;σ&lt;/font&gt;" style="rounded=1;whiteSpace=wrap;html=1;fillColor=#fff2cc;strokeColor=#d6b656;" parent="1" vertex="1">
          <mxGeometry x="230" y="333" width="37" height="20" as="geometry"/>
        </mxCell>
        <mxCell id="2yYWwWodukew2ZsMQavv-50" value="&lt;font style=&quot;font-size: 17px&quot;&gt;tanh&lt;/font&gt;" style="rounded=1;whiteSpace=wrap;html=1;fillColor=#fff2cc;strokeColor=#d6b656;" parent="1" vertex="1">
          <mxGeometry x="290" y="333" width="37" height="20" as="geometry"/>
        </mxCell>
        <mxCell id="2yYWwWodukew2ZsMQavv-54" value="&lt;font style=&quot;font-size: 19px&quot;&gt;σ&lt;/font&gt;" style="rounded=1;whiteSpace=wrap;html=1;fillColor=#fff2cc;strokeColor=#d6b656;" parent="1" vertex="1">
          <mxGeometry x="349" y="333" width="37" height="20" as="geometry"/>
        </mxCell>
        <mxCell id="2yYWwWodukew2ZsMQavv-56" value="" style="endArrow=none;html=1;strokeColor=#000000;strokeWidth=5;" parent="1" edge="1">
          <mxGeometry width="50" height="50" relative="1" as="geometry">
            <mxPoint x="198.5" y="373" as="sourcePoint"/>
            <mxPoint x="198.5" y="353" as="targetPoint"/>
          </mxGeometry>
        </mxCell>
        <mxCell id="2yYWwWodukew2ZsMQavv-58" value="" style="endArrow=none;html=1;strokeColor=#000000;strokeWidth=5;" parent="1" edge="1">
          <mxGeometry width="50" height="50" relative="1" as="geometry">
            <mxPoint y="110" as="sourcePoint"/>
            <mxPoint x="50" y="60" as="targetPoint"/>
          </mxGeometry>
        </mxCell>
        <mxCell id="2yYWwWodukew2ZsMQavv-59" value="" style="endArrow=none;html=1;strokeColor=#000000;strokeWidth=5;" parent="1" edge="1">
          <mxGeometry width="50" height="50" relative="1" as="geometry">
            <mxPoint x="170.5" y="434" as="sourcePoint"/>
            <mxPoint x="170" y="377" as="targetPoint"/>
          </mxGeometry>
        </mxCell>
        <mxCell id="2yYWwWodukew2ZsMQavv-60" value="" style="endArrow=none;html=1;strokeColor=#000000;strokeWidth=5;" parent="1" edge="1">
          <mxGeometry width="50" height="50" relative="1" as="geometry">
            <mxPoint x="249.5" y="373" as="sourcePoint"/>
            <mxPoint x="249.5" y="353" as="targetPoint"/>
          </mxGeometry>
        </mxCell>
        <mxCell id="2yYWwWodukew2ZsMQavv-61" value="" style="endArrow=none;html=1;strokeColor=#000000;strokeWidth=5;" parent="1" edge="1">
          <mxGeometry width="50" height="50" relative="1" as="geometry">
            <mxPoint x="308.5" y="373" as="sourcePoint"/>
            <mxPoint x="308.5" y="353" as="targetPoint"/>
          </mxGeometry>
        </mxCell>
        <mxCell id="2yYWwWodukew2ZsMQavv-69" value="" style="endArrow=none;html=1;strokeColor=#000000;strokeWidth=5;" parent="1" edge="1">
          <mxGeometry width="50" height="50" relative="1" as="geometry">
            <mxPoint x="220" y="200" as="sourcePoint"/>
            <mxPoint x="290" y="200" as="targetPoint"/>
          </mxGeometry>
        </mxCell>
        <mxCell id="2yYWwWodukew2ZsMQavv-70" value="" style="endArrow=none;html=1;strokeColor=#000000;strokeWidth=5;" parent="1" edge="1">
          <mxGeometry width="50" height="50" relative="1" as="geometry">
            <mxPoint x="130" y="200" as="sourcePoint"/>
            <mxPoint x="180" y="200" as="targetPoint"/>
          </mxGeometry>
        </mxCell>
        <mxCell id="2yYWwWodukew2ZsMQavv-72" value="" style="endArrow=none;html=1;strokeColor=#000000;strokeWidth=5;" parent="1" edge="1">
          <mxGeometry width="50" height="50" relative="1" as="geometry">
            <mxPoint x="433" y="214" as="sourcePoint"/>
            <mxPoint x="433" y="204" as="targetPoint"/>
          </mxGeometry>
        </mxCell>
        <mxCell id="2yYWwWodukew2ZsMQavv-73" value="" style="endArrow=classic;html=1;strokeWidth=5;" parent="1" edge="1">
          <mxGeometry width="50" height="50" relative="1" as="geometry">
            <mxPoint x="90" y="200" as="sourcePoint"/>
            <mxPoint x="130" y="200" as="targetPoint"/>
          </mxGeometry>
        </mxCell>
        <mxCell id="2yYWwWodukew2ZsMQavv-74" value="" style="endArrow=none;html=1;strokeColor=#000000;strokeWidth=5;" parent="1" edge="1">
          <mxGeometry width="50" height="50" relative="1" as="geometry">
            <mxPoint x="433" y="272" as="sourcePoint"/>
            <mxPoint x="433" y="242" as="targetPoint"/>
          </mxGeometry>
        </mxCell>
        <mxCell id="2yYWwWodukew2ZsMQavv-75" value="" style="endArrow=none;html=1;strokeColor=#000000;strokeWidth=5;" parent="1" edge="1">
          <mxGeometry width="50" height="50" relative="1" as="geometry">
            <mxPoint x="309" y="332" as="sourcePoint"/>
            <mxPoint x="309" y="305" as="targetPoint"/>
          </mxGeometry>
        </mxCell>
        <mxCell id="Dc-6O7Xa-JVWcTkFQoSp-1" value="&lt;font style=&quot;font-size: 20px&quot;&gt;X&lt;sub&gt;t&lt;/sub&gt;&lt;/font&gt;" style="text;html=1;strokeColor=none;fillColor=none;align=center;verticalAlign=middle;whiteSpace=wrap;rounded=0;" vertex="1" parent="1">
          <mxGeometry x="130" y="430" width="40" height="20" as="geometry"/>
        </mxCell>
        <mxCell id="Dc-6O7Xa-JVWcTkFQoSp-2" value="&lt;font style=&quot;font-size: 17px&quot;&gt;C&lt;sub&gt;t-1&lt;/sub&gt;&lt;/font&gt;" style="text;html=1;strokeColor=none;fillColor=none;align=center;verticalAlign=middle;whiteSpace=wrap;rounded=0;" vertex="1" parent="1">
          <mxGeometry x="50" y="180" width="40" height="20" as="geometry"/>
        </mxCell>
        <mxCell id="Dc-6O7Xa-JVWcTkFQoSp-3" value="&lt;font style=&quot;font-size: 20px&quot;&gt;h&lt;sub&gt;t-1&lt;/sub&gt;&lt;/font&gt;" style="text;html=1;strokeColor=none;fillColor=none;align=center;verticalAlign=middle;whiteSpace=wrap;rounded=0;" vertex="1" parent="1">
          <mxGeometry x="40" y="360" width="40" height="20" as="geometry"/>
        </mxCell>
        <mxCell id="Dc-6O7Xa-JVWcTkFQoSp-4" value="C&lt;sub style=&quot;font-size: 20px;&quot;&gt;t&lt;/sub&gt;" style="text;html=1;strokeColor=none;fillColor=none;align=center;verticalAlign=middle;whiteSpace=wrap;rounded=0;fontSize=20;" vertex="1" parent="1">
          <mxGeometry x="530" y="170" width="40" height="20" as="geometry"/>
        </mxCell>
        <mxCell id="Dc-6O7Xa-JVWcTkFQoSp-7" value="&lt;span style=&quot;font-size: 20px&quot;&gt;h&lt;sub&gt;t&lt;/sub&gt;&lt;/span&gt;" style="text;html=1;strokeColor=none;fillColor=none;align=center;verticalAlign=middle;whiteSpace=wrap;rounded=0;fontSize=20;" vertex="1" parent="1">
          <mxGeometry x="520" y="343" width="40" height="20" as="geometry"/>
        </mxCell>
        <mxCell id="Dc-6O7Xa-JVWcTkFQoSp-8" value="&lt;span style=&quot;font-size: 20px&quot;&gt;y&lt;/span&gt;&lt;sub style=&quot;font-size: 20px&quot;&gt;t&lt;/sub&gt;" style="text;html=1;strokeColor=none;fillColor=none;align=center;verticalAlign=middle;whiteSpace=wrap;rounded=0;fontSize=20;" vertex="1" parent="1">
          <mxGeometry x="433" y="130" width="40" height="20" as="geometry"/>
        </mxCell>
      </root>
    </mxGraphModel>
  </diagram>
</mxfile>
